{"title":"Hellraiser 1987 BDRip H264 AAC - IceBane (Kingdom-Release)","uid":5354565,"size":1905287359,"categoryP":"video","categoryS":"movies","magnet":"?xt=urn:btih:7f85b3a836dfc62af2b321e944b1e51ceef20d26&amp;dn=Hellraiser+1987+BDRip+H264+AAC+-+IceBane+%28Kingdom-Release%29&amp;tr=udp%3A%2F%2Ftracker.openbittorrent.com%3A80&amp;tr=udp%3A%2F%2Fopen.demonii.com%3A1337&amp;tr=udp%3A%2F%2Ftracker.coppersurfer.tk%3A6969&amp;tr=udp%3A%2F%2Fexodus.desync.com%3A6969","seeders":0,"leechers":1,"uploader":"IceBane","files":-1,"time":1265893770,"description":"General:\n\n\nTitle: Hellraiser \nDirector: Clive Barker\nRelease Date: 18 September 1987 (USA)\nRuntime: 93 min\nGenre: Horror   \nColor: Color\nIMDb Rating:  7.0/10   20,769 votes             \nIMDB Link: http://www.imdb.com/title/tt0093177/\nStudio: New World Pictures\nLanguage: English\nSubtitles: English\nSample Video: yes\nXbox 360 2 CH. Audio: Yes\n\nPlot:\n\nClive Barker's feature directing debut graphically depicts the tale of a man and wife who move into an old house and discover a hideous creature - the man's half-brother, who is also the woman's former lover - hiding upstairs. Having lost his earthly body to a trio of S&amp;M demons, the Cenobites, he is brought back into existence by a drop of blood on the floor. He soon forces his former mistress to bring him his necessary human sacrifices to complete his body... but the Cenobites won't be happy about this.`\n\nVideo:\n\nFormat: H.264/MPEG-4 AVC\nFormat/Info: Advanced Video Codec\nFormat profile: &lt;a class=&quot;__cf_email__&quot; href=&quot;/cdn-cgi/l/email-protection&quot; data-cfemail=&quot;0c44656b644c4038223e&quot;&gt;[email&amp;#160;protected]&lt;/a&gt;&lt;script cf-hash='f9e31' type=&quot;text/javascript&quot;&gt;\n/* &lt;![CDATA[ */!function(){try{var t=&quot;currentScript&quot;in document?document.currentScript:function(){for(var t=document.getElementsByTagName(&quot;script&quot;),e=t.length;e--;)if(t[e].getAttribute(&quot;cf-hash&quot;))return t[e]}();if(t&amp;&amp;t.previousSibling){var e,r,n,i,c=t.previousSibling,a=c.getAttribute(&quot;data-cfemail&quot;);if(a){for(e=&quot;&quot;,r=parseInt(a.substr(0,2),16),n=2;a.length-n;n+=2)i=parseInt(a.substr(n,2),16)^r,e+=String.fromCharCode(i);e=document.createTextNode(e),c.parentNode.replaceChild(e,c)}}}catch(u){}}();/* ]]&gt; */&lt;/script&gt;\nFormat settings, CABAC: Yes\nFormat settings, ReFrames: 3 frames\nCodec ID: avc1\nCodec ID/Info: Advanced Video Coding\nDuration: 1h 33min\nBit rate mode: Variable\nBit rate: 2170 Kbps\nMaximum bit rate: 19.7 Mbps \nScreen Resolution: 1280 x 720\nDisplay aspect ratio: 16:9\nFrame rate mode: Constant\nFrame rate: 23.976 fps\nResolution: 8 bits\nColorimetry: 4:2:0\nScan type: Progressive\nBits/(Pixel*Frame): 0.098\nStream size: 1.41 GiB (87%)\n\nAudio:\n\nFormat: mp4a - MPEG-4 AAC LC\nFormat/Info: Advanced Audio Codec\nFormat version: Version 4\nFormat profile: LC\nFormat settings, SBR: No\nCodec ID: 40\nDuration: 1h 33min\nBit rate mode: Variable\nBit rate: 327 Kbps\nMaximum bit rate: 408 Kbps\nChannel(s): 6 channels\nChannel positions: Front: L C R, Rear: L R, LFE\nSampling rate: 48.0 KHz\nStream size: 218 MiB (13%)\n\n\nScreen shots: &lt;a href=&quot;\nhttp://img194.imageshack.us/img194/9643/hell1.jpg&quot; rel=&quot;nofollow&quot; target=&quot;_NEW&quot;&gt;\nhttp://img194.imageshack.us/img194/9643/hell1.jpg&lt;/a&gt; &lt;a href=&quot;\nhttp://img29.imageshack.us/img29/9206/hell2s.jpg&quot; rel=&quot;nofollow&quot; target=&quot;_NEW&quot;&gt;\nhttp://img29.imageshack.us/img29/9206/hell2s.jpg&lt;/a&gt; &lt;a href=&quot;\nhttp://img716.imageshack.us/img716/9216/hell3.jpg&quot; rel=&quot;nofollow&quot; target=&quot;_NEW&quot;&gt;\nhttp://img716.imageshack.us/img716/9216/hell3.jpg&lt;/a&gt; &lt;a href=&quot;\nhttp://img714.imageshack.us/img714/2090/hell4.jpg&quot; rel=&quot;nofollow&quot; target=&quot;_NEW&quot;&gt;\nhttp://img714.imageshack.us/img714/2090/hell4.jpg&lt;/a&gt; &lt;a href=&quot;\nhttp://img63.imageshack.us/img63/8972/hell5.jpg&quot; rel=&quot;nofollow&quot; target=&quot;_NEW&quot;&gt;\nhttp://img63.imageshack.us/img63/8972/hell5.jpg&lt;/a&gt; &lt;a href=&quot;\nhttp://img714.imageshack.us/img714/6401/hellraiserthumbs.jpg&quot; rel=&quot;nofollow&quot; target=&quot;_NEW&quot;&gt;\nhttp://img714.imageshack.us/img714/6401/hellraiserthumbs.jpg&lt;/a&gt;\n\n\nHope you all enjoy.\nKeep Seeding Please.\n\nIceBane","torrent":{"xt":"urn:btih:7f85b3a836dfc62af2b321e944b1e51ceef20d26","amp;dn":"Hellraiser+1987+BDRip+H264+AAC+-+IceBane+%28Kingdom-Release%29","amp;tr":["udp%3A%2F%2Ftracker.openbittorrent.com%3A80","udp%3A%2F%2Fopen.demonii.com%3A1337","udp%3A%2F%2Ftracker.coppersurfer.tk%3A6969","udp%3A%2F%2Fexodus.desync.com%3A6969"],"infoHash":"7f85b3a836dfc62af2b321e944b1e51ceef20d26","infoHashBuffer":{"type":"Buffer","data":[127,133,179,168,54,223,198,42,242,179,33,233,68,177,229,28,238,242,13,38]},"announce":[],"urlList":[]}}